<mxfile host="65bd71144e">
    <diagram id="_sLm_Kj89hjXZH-IWD47" name="Page-1">
        <mxGraphModel dx="378" dy="256" grid="1" gridSize="10" guides="1" tooltips="1" connect="1" arrows="1" fold="1" page="1" pageScale="1" pageWidth="1600" pageHeight="900" math="0" shadow="0">
            <root>
                <mxCell id="0"/>
                <mxCell id="1" parent="0"/>
                <mxCell id="2" value="" style="rounded=0;whiteSpace=wrap;html=1;fillColor=#bac8d3;strokeColor=#23445d;" parent="1" vertex="1">
                    <mxGeometry width="1600" height="80" as="geometry"/>
                </mxCell>
                <mxCell id="3" value="" style="rounded=0;whiteSpace=wrap;html=1;fillColor=#bac8d3;strokeColor=#23445d;" parent="1" vertex="1">
                    <mxGeometry y="820" width="1600" height="80" as="geometry"/>
                </mxCell>
                <mxCell id="4" value="&lt;font face=&quot;Chakra Petch&quot; data-font-src=&quot;https://fonts.googleapis.com/css?family=Chakra+Petch&quot; style=&quot;font-size: 20px&quot;&gt;LIBRARY&lt;/font&gt;" style="rounded=0;whiteSpace=wrap;html=1;fillColor=#f9f7ed;strokeColor=#36393d;" parent="1" vertex="1">
                    <mxGeometry x="670" y="10" width="130" height="60" as="geometry"/>
                </mxCell>
                <mxCell id="7" value="&lt;font face=&quot;Chakra Petch&quot; data-font-src=&quot;https://fonts.googleapis.com/css?family=Chakra+Petch&quot; style=&quot;font-size: 20px&quot;&gt;EXPLORE&lt;/font&gt;" style="rounded=0;whiteSpace=wrap;html=1;fillColor=#ffcc99;strokeColor=#36393d;" parent="1" vertex="1">
                    <mxGeometry x="800" y="10" width="120" height="60" as="geometry"/>
                </mxCell>
                <mxCell id="8" value="&lt;font face=&quot;Chakra Petch&quot; data-font-src=&quot;https://fonts.googleapis.com/css?family=Chakra+Petch&quot; style=&quot;font-size: 20px&quot;&gt;▶&lt;/font&gt;" style="rounded=0;whiteSpace=wrap;html=1;fillColor=#ffcc99;strokeColor=#36393d;" parent="1" vertex="1">
                    <mxGeometry x="10" y="830" width="60" height="60" as="geometry"/>
                </mxCell>
                <mxCell id="9" value="" style="icon;html=1;image=img/clipart/Gear_128x128.png;fontFamily=Chakra Petch;fontSource=https%3A%2F%2Ffonts.googleapis.com%2Fcss%3Ffamily%3DChakra%2BPetch;fontSize=20;rounded=0;" parent="1" vertex="1">
                    <mxGeometry x="90" y="830" width="60" height="60" as="geometry"/>
                </mxCell>
                <mxCell id="10" value="Radio station (stream type &amp;amp; bitrate)&lt;br&gt;Artist – Song" style="text;html=1;strokeColor=none;fillColor=none;align=left;verticalAlign=middle;whiteSpace=wrap;rounded=0;fontFamily=Chakra Petch;fontSource=https%3A%2F%2Ffonts.googleapis.com%2Fcss%3Ffamily%3DChakra%2BPetch;fontSize=20;" parent="1" vertex="1">
                    <mxGeometry x="160" y="830" width="420" height="60" as="geometry"/>
                </mxCell>
                <mxCell id="11" value="&lt;font size=&quot;1&quot;&gt;&lt;br&gt;VOLUME: 50%&lt;/font&gt;" style="rounded=0;whiteSpace=wrap;html=1;fontFamily=Chakra Petch;fontSource=https%3A%2F%2Ffonts.googleapis.com%2Fcss%3Ffamily%3DChakra%2BPetch;fontSize=20;fillColor=#ffcc99;strokeColor=#36393d;" parent="1" vertex="1">
                    <mxGeometry x="20" y="35" width="150" height="10" as="geometry"/>
                </mxCell>
                <mxCell id="12" value="" style="whiteSpace=wrap;html=1;aspect=fixed;rounded=0;fontFamily=Chakra Petch;fontSource=https%3A%2F%2Ffonts.googleapis.com%2Fcss%3Ffamily%3DChakra%2BPetch;fontSize=19;fillColor=#000000;" parent="1" vertex="1">
                    <mxGeometry x="90" y="35" width="10" height="10" as="geometry"/>
                </mxCell>
                <mxCell id="15" value="&lt;i&gt;Search...&lt;/i&gt;" style="rounded=0;whiteSpace=wrap;html=1;fontFamily=Chakra Petch;fontSource=https%3A%2F%2Ffonts.googleapis.com%2Fcss%3Ffamily%3DChakra%2BPetch;fontSize=19;fillColor=#f9f7ed;strokeColor=#36393d;align=left;" parent="1" vertex="1">
                    <mxGeometry x="1240" y="20" width="250" height="40" as="geometry"/>
                </mxCell>
                <mxCell id="16" value="" style="rounded=0;whiteSpace=wrap;html=1;fontFamily=Chakra Petch;fontSource=https%3A%2F%2Ffonts.googleapis.com%2Fcss%3Ffamily%3DChakra%2BPetch;fontSize=19;fillColor=#ffcc99;strokeColor=#36393d;align=left;" parent="1" vertex="1">
                    <mxGeometry x="1480" y="20" width="40" height="40" as="geometry"/>
                </mxCell>
                <mxCell id="18" value="" style="endArrow=none;html=1;fontFamily=Chakra Petch;fontSource=https%3A%2F%2Ffonts.googleapis.com%2Fcss%3Ffamily%3DChakra%2BPetch;fontSize=18;" parent="1" edge="1">
                    <mxGeometry width="50" height="50" relative="1" as="geometry">
                        <mxPoint x="20" y="45" as="sourcePoint"/>
                        <mxPoint x="30" y="35" as="targetPoint"/>
                    </mxGeometry>
                </mxCell>
                <mxCell id="19" value="" style="endArrow=none;html=1;fontFamily=Chakra Petch;fontSource=https%3A%2F%2Ffonts.googleapis.com%2Fcss%3Ffamily%3DChakra%2BPetch;fontSize=18;" parent="1" edge="1">
                    <mxGeometry width="50" height="50" relative="1" as="geometry">
                        <mxPoint x="30" y="45" as="sourcePoint"/>
                        <mxPoint x="40" y="35" as="targetPoint"/>
                    </mxGeometry>
                </mxCell>
                <mxCell id="20" value="" style="endArrow=none;html=1;fontFamily=Chakra Petch;fontSource=https%3A%2F%2Ffonts.googleapis.com%2Fcss%3Ffamily%3DChakra%2BPetch;fontSize=18;" parent="1" edge="1">
                    <mxGeometry width="50" height="50" relative="1" as="geometry">
                        <mxPoint x="40" y="45" as="sourcePoint"/>
                        <mxPoint x="50" y="35" as="targetPoint"/>
                    </mxGeometry>
                </mxCell>
                <mxCell id="21" value="" style="endArrow=none;html=1;fontFamily=Chakra Petch;fontSource=https%3A%2F%2Ffonts.googleapis.com%2Fcss%3Ffamily%3DChakra%2BPetch;fontSize=18;" parent="1" edge="1">
                    <mxGeometry width="50" height="50" relative="1" as="geometry">
                        <mxPoint x="50" y="45" as="sourcePoint"/>
                        <mxPoint x="60" y="35" as="targetPoint"/>
                    </mxGeometry>
                </mxCell>
                <mxCell id="22" value="" style="endArrow=none;html=1;fontFamily=Chakra Petch;fontSource=https%3A%2F%2Ffonts.googleapis.com%2Fcss%3Ffamily%3DChakra%2BPetch;fontSize=18;" parent="1" edge="1">
                    <mxGeometry width="50" height="50" relative="1" as="geometry">
                        <mxPoint x="60" y="45" as="sourcePoint"/>
                        <mxPoint x="70" y="35" as="targetPoint"/>
                    </mxGeometry>
                </mxCell>
                <mxCell id="23" value="" style="endArrow=none;html=1;fontFamily=Chakra Petch;fontSource=https%3A%2F%2Ffonts.googleapis.com%2Fcss%3Ffamily%3DChakra%2BPetch;fontSize=18;" parent="1" edge="1">
                    <mxGeometry width="50" height="50" relative="1" as="geometry">
                        <mxPoint x="70" y="45" as="sourcePoint"/>
                        <mxPoint x="80" y="35" as="targetPoint"/>
                    </mxGeometry>
                </mxCell>
                <mxCell id="24" value="" style="endArrow=none;html=1;fontFamily=Chakra Petch;fontSource=https%3A%2F%2Ffonts.googleapis.com%2Fcss%3Ffamily%3DChakra%2BPetch;fontSize=18;" parent="1" edge="1">
                    <mxGeometry width="50" height="50" relative="1" as="geometry">
                        <mxPoint x="80" y="45" as="sourcePoint"/>
                        <mxPoint x="90" y="35" as="targetPoint"/>
                    </mxGeometry>
                </mxCell>
                <mxCell id="25" value="" style="endArrow=none;html=1;fontFamily=Chakra Petch;fontSource=https%3A%2F%2Ffonts.googleapis.com%2Fcss%3Ffamily%3DChakra%2BPetch;fontSize=18;" parent="1" edge="1">
                    <mxGeometry width="50" height="50" relative="1" as="geometry">
                        <mxPoint x="90" y="45" as="sourcePoint"/>
                        <mxPoint x="100" y="35" as="targetPoint"/>
                    </mxGeometry>
                </mxCell>
                <mxCell id="34" value="    Most Popular" style="swimlane;rounded=0;fontFamily=Chakra Petch;fontSource=https%3A%2F%2Ffonts.googleapis.com%2Fcss%3Ffamily%3DChakra%2BPetch;fontSize=22;fillColor=#f9f7ed;swimlaneFillColor=#BDBDBD;strokeColor=#36393d;startSize=50;align=left;" parent="1" vertex="1">
                    <mxGeometry x="90" y="80" width="520" height="740" as="geometry"/>
                </mxCell>
                <mxCell id="38" value="" style="rounded=0;whiteSpace=wrap;html=1;fontFamily=Chakra Petch;fontSource=https%3A%2F%2Ffonts.googleapis.com%2Fcss%3Ffamily%3DChakra%2BPetch;fontSize=22;fillColor=#E6E6E6;align=left;" parent="34" vertex="1">
                    <mxGeometry x="10" y="60" width="230" height="60" as="geometry"/>
                </mxCell>
                <mxCell id="39" value="" style="icon;html=1;image=img/clipart/Gear_128x128.png;fontFamily=Chakra Petch;fontSource=https%3A%2F%2Ffonts.googleapis.com%2Fcss%3Ffamily%3DChakra%2BPetch;fontSize=20;rounded=0;" parent="34" vertex="1">
                    <mxGeometry x="20" y="70" width="40" height="40" as="geometry"/>
                </mxCell>
                <mxCell id="41" value="&lt;div style=&quot;font-size: 11px;&quot;&gt;&lt;span style=&quot;font-size: 11px;&quot;&gt;&lt;font style=&quot;font-size: 11px;&quot;&gt;Station name&lt;/font&gt;&lt;/span&gt;&lt;/div&gt;&lt;div style=&quot;font-size: 11px;&quot;&gt;&lt;span style=&quot;font-size: 11px;&quot;&gt;&lt;font style=&quot;font-size: 11px;&quot;&gt;Location&lt;/font&gt;&lt;/span&gt;&lt;/div&gt;&lt;div style=&quot;font-size: 11px;&quot;&gt;&lt;span style=&quot;font-size: 11px;&quot;&gt;&lt;font style=&quot;font-size: 11px;&quot;&gt;Genres&lt;/font&gt;&lt;/span&gt;&lt;/div&gt;" style="text;html=1;strokeColor=none;fillColor=none;align=left;verticalAlign=middle;whiteSpace=wrap;rounded=0;fontFamily=Chakra Petch;fontSource=https%3A%2F%2Ffonts.googleapis.com%2Fcss%3Ffamily%3DChakra%2BPetch;fontSize=11;" parent="34" vertex="1">
                    <mxGeometry x="70" y="75" width="80" height="30" as="geometry"/>
                </mxCell>
                <mxCell id="42" value="&lt;span class=&quot;ILfuVd&quot; lang=&quot;en&quot;&gt;&lt;span class=&quot;hgKElc&quot;&gt;&lt;font style=&quot;line-height: 0.6&quot;&gt;♥&lt;br&gt;&lt;span style=&quot;font-size: 8px&quot;&gt;123&lt;/span&gt;&lt;br&gt;&lt;span style=&quot;font-size: 8px&quot;&gt;▶&lt;/span&gt;&lt;br&gt;&lt;/font&gt;&lt;/span&gt;&lt;/span&gt;" style="rounded=0;whiteSpace=wrap;html=1;fontFamily=Chakra Petch;fontSource=https%3A%2F%2Ffonts.googleapis.com%2Fcss%3Ffamily%3DChakra%2BPetch;fontSize=11;fillColor=#ffcc99;strokeColor=#36393d;" parent="34" vertex="1">
                    <mxGeometry x="220" y="60" width="20" height="60" as="geometry"/>
                </mxCell>
                <mxCell id="43" value="" style="rounded=0;whiteSpace=wrap;html=1;fontFamily=Chakra Petch;fontSource=https%3A%2F%2Ffonts.googleapis.com%2Fcss%3Ffamily%3DChakra%2BPetch;fontSize=22;fillColor=#E6E6E6;align=left;" parent="34" vertex="1">
                    <mxGeometry x="10" y="130" width="230" height="60" as="geometry"/>
                </mxCell>
                <mxCell id="44" value="" style="icon;html=1;image=img/clipart/Gear_128x128.png;fontFamily=Chakra Petch;fontSource=https%3A%2F%2Ffonts.googleapis.com%2Fcss%3Ffamily%3DChakra%2BPetch;fontSize=20;rounded=0;" parent="34" vertex="1">
                    <mxGeometry x="20" y="140" width="40" height="40" as="geometry"/>
                </mxCell>
                <mxCell id="45" value="&lt;div style=&quot;font-size: 11px;&quot;&gt;&lt;span style=&quot;font-size: 11px;&quot;&gt;&lt;font style=&quot;font-size: 11px;&quot;&gt;Station name&lt;/font&gt;&lt;/span&gt;&lt;/div&gt;&lt;div style=&quot;font-size: 11px;&quot;&gt;&lt;span style=&quot;font-size: 11px;&quot;&gt;&lt;font style=&quot;font-size: 11px;&quot;&gt;Location&lt;/font&gt;&lt;/span&gt;&lt;/div&gt;&lt;div style=&quot;font-size: 11px;&quot;&gt;&lt;span style=&quot;font-size: 11px;&quot;&gt;&lt;font style=&quot;font-size: 11px;&quot;&gt;Genres&lt;/font&gt;&lt;/span&gt;&lt;/div&gt;" style="text;html=1;strokeColor=none;fillColor=none;align=left;verticalAlign=middle;whiteSpace=wrap;rounded=0;fontFamily=Chakra Petch;fontSource=https%3A%2F%2Ffonts.googleapis.com%2Fcss%3Ffamily%3DChakra%2BPetch;fontSize=11;" parent="34" vertex="1">
                    <mxGeometry x="70" y="145" width="80" height="30" as="geometry"/>
                </mxCell>
                <mxCell id="46" value="&lt;span class=&quot;ILfuVd&quot; lang=&quot;en&quot;&gt;&lt;span class=&quot;hgKElc&quot;&gt;&lt;font style=&quot;line-height: 0.6&quot;&gt;♥&lt;br&gt;&lt;span style=&quot;font-size: 8px&quot;&gt;45&lt;/span&gt;&lt;br&gt;&lt;b&gt;★&lt;/b&gt;&lt;br&gt;&lt;/font&gt;&lt;/span&gt;&lt;/span&gt;" style="rounded=0;whiteSpace=wrap;html=1;fontFamily=Chakra Petch;fontSource=https%3A%2F%2Ffonts.googleapis.com%2Fcss%3Ffamily%3DChakra%2BPetch;fontSize=11;fillColor=#ffcc99;strokeColor=#36393d;" parent="34" vertex="1">
                    <mxGeometry x="220" y="130" width="20" height="60" as="geometry"/>
                </mxCell>
                <mxCell id="48" value="" style="rounded=0;whiteSpace=wrap;html=1;fontFamily=Chakra Petch;fontSource=https%3A%2F%2Ffonts.googleapis.com%2Fcss%3Ffamily%3DChakra%2BPetch;fontSize=22;fillColor=#E6E6E6;align=left;" parent="34" vertex="1">
                    <mxGeometry x="10" y="200" width="230" height="60" as="geometry"/>
                </mxCell>
                <mxCell id="49" value="" style="icon;html=1;image=img/clipart/Gear_128x128.png;fontFamily=Chakra Petch;fontSource=https%3A%2F%2Ffonts.googleapis.com%2Fcss%3Ffamily%3DChakra%2BPetch;fontSize=20;rounded=0;" parent="34" vertex="1">
                    <mxGeometry x="20" y="210" width="40" height="40" as="geometry"/>
                </mxCell>
                <mxCell id="50" value="&lt;div style=&quot;font-size: 11px;&quot;&gt;&lt;span style=&quot;font-size: 11px;&quot;&gt;&lt;font style=&quot;font-size: 11px;&quot;&gt;Station name&lt;/font&gt;&lt;/span&gt;&lt;/div&gt;&lt;div style=&quot;font-size: 11px;&quot;&gt;&lt;span style=&quot;font-size: 11px;&quot;&gt;&lt;font style=&quot;font-size: 11px;&quot;&gt;Location&lt;/font&gt;&lt;/span&gt;&lt;/div&gt;&lt;div style=&quot;font-size: 11px;&quot;&gt;&lt;span style=&quot;font-size: 11px;&quot;&gt;&lt;font style=&quot;font-size: 11px;&quot;&gt;Genres&lt;/font&gt;&lt;/span&gt;&lt;/div&gt;" style="text;html=1;strokeColor=none;fillColor=none;align=left;verticalAlign=middle;whiteSpace=wrap;rounded=0;fontFamily=Chakra Petch;fontSource=https%3A%2F%2Ffonts.googleapis.com%2Fcss%3Ffamily%3DChakra%2BPetch;fontSize=11;" parent="34" vertex="1">
                    <mxGeometry x="70" y="215" width="80" height="30" as="geometry"/>
                </mxCell>
                <mxCell id="51" value="&lt;span class=&quot;ILfuVd&quot; lang=&quot;en&quot;&gt;&lt;span class=&quot;hgKElc&quot;&gt;&lt;font style=&quot;line-height: 0.6&quot;&gt;♥&lt;br&gt;&lt;span style=&quot;font-size: 8px&quot;&gt;987&lt;/span&gt;&lt;br&gt;&lt;/font&gt;&lt;/span&gt;&lt;/span&gt;" style="rounded=0;whiteSpace=wrap;html=1;fontFamily=Chakra Petch;fontSource=https%3A%2F%2Ffonts.googleapis.com%2Fcss%3Ffamily%3DChakra%2BPetch;fontSize=11;fillColor=#ffcc99;strokeColor=#36393d;" parent="34" vertex="1">
                    <mxGeometry x="220" y="200" width="20" height="60" as="geometry"/>
                </mxCell>
                <mxCell id="52" value="&lt;font style=&quot;font-size: 22px&quot;&gt;...&lt;/font&gt;" style="text;html=1;strokeColor=none;fillColor=none;align=center;verticalAlign=middle;whiteSpace=wrap;rounded=0;fontFamily=Chakra Petch;fontSource=https%3A%2F%2Ffonts.googleapis.com%2Fcss%3Ffamily%3DChakra%2BPetch;fontSize=8;direction=east;" parent="34" vertex="1">
                    <mxGeometry x="105" y="340" width="60" height="30" as="geometry"/>
                </mxCell>
                <mxCell id="53" value="&lt;span class=&quot;ILfuVd&quot; lang=&quot;en&quot;&gt;&lt;span class=&quot;hgKElc&quot;&gt;&lt;font style=&quot;line-height: 0.6&quot;&gt;&lt;font style=&quot;font-size: 25px&quot;&gt;❮&lt;/font&gt;&lt;br&gt;&lt;/font&gt;&lt;/span&gt;&lt;/span&gt;" style="rounded=0;whiteSpace=wrap;html=1;fontFamily=Chakra Petch;fontSource=https%3A%2F%2Ffonts.googleapis.com%2Fcss%3Ffamily%3DChakra%2BPetch;fontSize=11;fillColor=#f9f7ed;strokeColor=#36393d;" parent="34" vertex="1">
                    <mxGeometry x="200" y="200" width="20" height="60" as="geometry"/>
                </mxCell>
                <mxCell id="54" value="" style="shape=flexArrow;endArrow=classic;html=1;fontFamily=Chakra Petch;fontSource=https%3A%2F%2Ffonts.googleapis.com%2Fcss%3Ffamily%3DChakra%2BPetch;fontSize=25;width=2.608695652173913;endSize=4.321739130434783;endWidth=7.296786389413988;fillColor=default;" parent="34" edge="1">
                    <mxGeometry width="50" height="50" relative="1" as="geometry">
                        <mxPoint x="220" y="265" as="sourcePoint"/>
                        <mxPoint x="210" y="245" as="targetPoint"/>
                    </mxGeometry>
                </mxCell>
                <mxCell id="59" value="" style="rounded=0;whiteSpace=wrap;html=1;fontFamily=Chakra Petch;fontSource=https%3A%2F%2Ffonts.googleapis.com%2Fcss%3Ffamily%3DChakra%2BPetch;fontSize=22;fillColor=#f9f7ed;align=left;strokeColor=#36393d;" parent="34" vertex="1">
                    <mxGeometry x="10" y="270" width="230" height="60" as="geometry"/>
                </mxCell>
                <mxCell id="62" value="&lt;span class=&quot;ILfuVd&quot; lang=&quot;en&quot;&gt;&lt;span class=&quot;hgKElc&quot;&gt;&lt;font style=&quot;line-height: 0.6&quot;&gt;♥&lt;br&gt;&lt;span style=&quot;font-size: 8px&quot;&gt;987&lt;/span&gt;&lt;br&gt;&lt;/font&gt;&lt;/span&gt;&lt;/span&gt;" style="rounded=0;whiteSpace=wrap;html=1;fontFamily=Chakra Petch;fontSource=https%3A%2F%2Ffonts.googleapis.com%2Fcss%3Ffamily%3DChakra%2BPetch;fontSize=11;fillColor=#ffcc99;strokeColor=#36393d;" parent="34" vertex="1">
                    <mxGeometry x="220" y="270" width="20" height="60" as="geometry"/>
                </mxCell>
                <mxCell id="64" value="&lt;span class=&quot;ILfuVd&quot; lang=&quot;en&quot;&gt;&lt;span class=&quot;hgKElc&quot;&gt;&lt;font style=&quot;line-height: 0.6&quot;&gt;&lt;font style=&quot;font-size: 25px&quot;&gt;❯&lt;/font&gt;&lt;br&gt;&lt;/font&gt;&lt;/span&gt;&lt;/span&gt;" style="rounded=0;whiteSpace=wrap;html=1;fontFamily=Chakra Petch;fontSource=https%3A%2F%2Ffonts.googleapis.com%2Fcss%3Ffamily%3DChakra%2BPetch;fontSize=11;fillColor=#f9f7ed;strokeColor=#36393d;" parent="34" vertex="1">
                    <mxGeometry x="10" y="270" width="20" height="60" as="geometry"/>
                </mxCell>
                <mxCell id="65" value="&lt;font style=&quot;font-size: 15px&quot;&gt;Play&lt;/font&gt;" style="whiteSpace=wrap;html=1;aspect=fixed;rounded=0;fontFamily=Chakra Petch;fontSource=https%3A%2F%2Ffonts.googleapis.com%2Fcss%3Ffamily%3DChakra%2BPetch;fontSize=25;fillColor=#E6E6E6;" parent="34" vertex="1">
                    <mxGeometry x="50" y="280" width="40" height="40" as="geometry"/>
                </mxCell>
                <mxCell id="66" value="&lt;font style=&quot;font-size: 15px&quot;&gt;Vote&lt;/font&gt;" style="whiteSpace=wrap;html=1;aspect=fixed;rounded=0;fontFamily=Chakra Petch;fontSource=https%3A%2F%2Ffonts.googleapis.com%2Fcss%3Ffamily%3DChakra%2BPetch;fontSize=25;fillColor=#E6E6E6;" parent="34" vertex="1">
                    <mxGeometry x="105" y="280" width="40" height="40" as="geometry"/>
                </mxCell>
                <mxCell id="67" value="&lt;font style=&quot;line-height: 0.8 ; font-size: 15px&quot;&gt;Add&lt;/font&gt;" style="whiteSpace=wrap;html=1;aspect=fixed;rounded=0;fontFamily=Chakra Petch;fontSource=https%3A%2F%2Ffonts.googleapis.com%2Fcss%3Ffamily%3DChakra%2BPetch;fontSize=25;fillColor=#E6E6E6;" parent="34" vertex="1">
                    <mxGeometry x="160" y="280" width="40" height="40" as="geometry"/>
                </mxCell>
                <mxCell id="70" value="View more" style="rounded=0;whiteSpace=wrap;html=1;fontFamily=Chakra Petch;fontSource=https%3A%2F%2Ffonts.googleapis.com%2Fcss%3Ffamily%3DChakra%2BPetch;fontSize=20;fillColor=#E6E6E6;" parent="34" vertex="1">
                    <mxGeometry x="360" y="10" width="130" height="30" as="geometry"/>
                </mxCell>
                <mxCell id="147" value="" style="rounded=0;whiteSpace=wrap;html=1;fontFamily=Chakra Petch;fontSource=https%3A%2F%2Ffonts.googleapis.com%2Fcss%3Ffamily%3DChakra%2BPetch;fontSize=22;fillColor=#E6E6E6;align=left;" parent="34" vertex="1">
                    <mxGeometry x="260" y="60" width="230" height="60" as="geometry"/>
                </mxCell>
                <mxCell id="148" value="" style="icon;html=1;image=img/clipart/Gear_128x128.png;fontFamily=Chakra Petch;fontSource=https%3A%2F%2Ffonts.googleapis.com%2Fcss%3Ffamily%3DChakra%2BPetch;fontSize=20;rounded=0;" parent="34" vertex="1">
                    <mxGeometry x="280" y="70" width="40" height="40" as="geometry"/>
                </mxCell>
                <mxCell id="149" value="&lt;div style=&quot;font-size: 11px;&quot;&gt;&lt;span style=&quot;font-size: 11px;&quot;&gt;&lt;font style=&quot;font-size: 11px;&quot;&gt;Station name&lt;/font&gt;&lt;/span&gt;&lt;/div&gt;&lt;div style=&quot;font-size: 11px;&quot;&gt;&lt;span style=&quot;font-size: 11px;&quot;&gt;&lt;font style=&quot;font-size: 11px;&quot;&gt;Location&lt;/font&gt;&lt;/span&gt;&lt;/div&gt;&lt;div style=&quot;font-size: 11px;&quot;&gt;&lt;span style=&quot;font-size: 11px;&quot;&gt;&lt;font style=&quot;font-size: 11px;&quot;&gt;Genres&lt;/font&gt;&lt;/span&gt;&lt;/div&gt;" style="text;html=1;strokeColor=none;fillColor=none;align=left;verticalAlign=middle;whiteSpace=wrap;rounded=0;fontFamily=Chakra Petch;fontSource=https%3A%2F%2Ffonts.googleapis.com%2Fcss%3Ffamily%3DChakra%2BPetch;fontSize=11;" parent="34" vertex="1">
                    <mxGeometry x="330" y="75" width="80" height="30" as="geometry"/>
                </mxCell>
                <mxCell id="150" value="&lt;span class=&quot;ILfuVd&quot; lang=&quot;en&quot;&gt;&lt;span class=&quot;hgKElc&quot;&gt;&lt;font style=&quot;line-height: 0.6&quot;&gt;♥&lt;br&gt;&lt;span style=&quot;font-size: 8px&quot;&gt;1&lt;/span&gt;&lt;br&gt;&lt;/font&gt;&lt;/span&gt;&lt;/span&gt;" style="rounded=0;whiteSpace=wrap;html=1;fontFamily=Chakra Petch;fontSource=https%3A%2F%2Ffonts.googleapis.com%2Fcss%3Ffamily%3DChakra%2BPetch;fontSize=11;fillColor=#ffcc99;strokeColor=#36393d;" parent="34" vertex="1">
                    <mxGeometry x="470" y="60" width="20" height="60" as="geometry"/>
                </mxCell>
                <mxCell id="151" value="&lt;font style=&quot;font-size: 22px&quot;&gt;...&lt;/font&gt;" style="text;html=1;strokeColor=none;fillColor=none;align=center;verticalAlign=middle;whiteSpace=wrap;rounded=0;fontFamily=Chakra Petch;fontSource=https%3A%2F%2Ffonts.googleapis.com%2Fcss%3Ffamily%3DChakra%2BPetch;fontSize=8;direction=east;" vertex="1" parent="34">
                    <mxGeometry x="340" y="130" width="60" height="30" as="geometry"/>
                </mxCell>
                <mxCell id="36" value="    Recently Played" style="swimlane;rounded=0;fontFamily=Chakra Petch;fontSource=https%3A%2F%2Ffonts.googleapis.com%2Fcss%3Ffamily%3DChakra%2BPetch;fontSize=22;fillColor=#f9f7ed;swimlaneFillColor=#BDBDBD;strokeColor=#36393d;startSize=50;align=left;" parent="1" vertex="1">
                    <mxGeometry x="590" y="80" width="520" height="740" as="geometry"/>
                </mxCell>
                <mxCell id="71" value="View more" style="rounded=0;whiteSpace=wrap;html=1;fontFamily=Chakra Petch;fontSource=https%3A%2F%2Ffonts.googleapis.com%2Fcss%3Ffamily%3DChakra%2BPetch;fontSize=20;fillColor=#E6E6E6;" parent="36" vertex="1">
                    <mxGeometry x="380" y="10" width="130" height="30" as="geometry"/>
                </mxCell>
                <mxCell id="37" value="    Newly Added" style="swimlane;rounded=0;fontFamily=Chakra Petch;fontSource=https%3A%2F%2Ffonts.googleapis.com%2Fcss%3Ffamily%3DChakra%2BPetch;fontSize=22;fillColor=#f9f7ed;swimlaneFillColor=#BDBDBD;strokeColor=#36393d;startSize=50;align=left;" parent="1" vertex="1">
                    <mxGeometry x="1110" y="80" width="490" height="740" as="geometry"/>
                </mxCell>
                <mxCell id="72" value="View more" style="rounded=0;whiteSpace=wrap;html=1;fontFamily=Chakra Petch;fontSource=https%3A%2F%2Ffonts.googleapis.com%2Fcss%3Ffamily%3DChakra%2BPetch;fontSize=20;fillColor=#E6E6E6;" parent="37" vertex="1">
                    <mxGeometry x="350" y="10" width="130" height="30" as="geometry"/>
                </mxCell>
                <mxCell id="69" value="&lt;font style=&quot;font-size: 27px&quot;&gt;♥ &lt;/font&gt;&lt;font style=&quot;font-size: 20px&quot;&gt;123&lt;/font&gt;&lt;font style=&quot;font-size: 27px&quot;&gt;&amp;nbsp;☆&amp;nbsp;⌂&lt;/font&gt;" style="text;html=1;strokeColor=none;fillColor=none;align=center;verticalAlign=middle;whiteSpace=wrap;rounded=0;fontFamily=Chakra Petch;fontSource=https%3A%2F%2Ffonts.googleapis.com%2Fcss%3Ffamily%3DChakra%2BPetch;fontSize=9;" parent="1" vertex="1">
                    <mxGeometry x="1420" y="845" width="180" height="30" as="geometry"/>
                </mxCell>
                <mxCell id="73" value="" style="rounded=0;whiteSpace=wrap;html=1;fontFamily=Chakra Petch;fontSource=https%3A%2F%2Ffonts.googleapis.com%2Fcss%3Ffamily%3DChakra%2BPetch;fontSize=20;fillColor=#E6E6E6;" parent="1" vertex="1">
                    <mxGeometry y="80" width="90" height="740" as="geometry"/>
                </mxCell>
                <mxCell id="74" value="&lt;font style=&quot;font-size: 16px&quot;&gt;Genres&lt;/font&gt;" style="rounded=0;whiteSpace=wrap;html=1;fontFamily=Chakra Petch;fontSource=https%3A%2F%2Ffonts.googleapis.com%2Fcss%3Ffamily%3DChakra%2BPetch;fontSize=20;fillColor=#f9f7ed;strokeColor=#36393d;" parent="1" vertex="1">
                    <mxGeometry x="10" y="90" width="70" height="60" as="geometry"/>
                </mxCell>
                <mxCell id="75" value="&lt;font style=&quot;font-size: 13px&quot;&gt;Languages&lt;/font&gt;" style="rounded=0;whiteSpace=wrap;html=1;fontFamily=Chakra Petch;fontSource=https%3A%2F%2Ffonts.googleapis.com%2Fcss%3Ffamily%3DChakra%2BPetch;fontSize=20;fillColor=#f9f7ed;strokeColor=#36393d;" parent="1" vertex="1">
                    <mxGeometry x="10" y="160" width="70" height="60" as="geometry"/>
                </mxCell>
                <mxCell id="76" value="&lt;font style=&quot;font-size: 14px&quot;&gt;Countries&lt;/font&gt;" style="rounded=0;whiteSpace=wrap;html=1;fontFamily=Chakra Petch;fontSource=https%3A%2F%2Ffonts.googleapis.com%2Fcss%3Ffamily%3DChakra%2BPetch;fontSize=20;fillColor=#f9f7ed;strokeColor=#36393d;" parent="1" vertex="1">
                    <mxGeometry x="10" y="230" width="70" height="60" as="geometry"/>
                </mxCell>
                <mxCell id="77" value="&lt;font style=&quot;font-size: 19px&quot;&gt;Home&lt;/font&gt;" style="rounded=0;whiteSpace=wrap;html=1;fontFamily=Chakra Petch;fontSource=https%3A%2F%2Ffonts.googleapis.com%2Fcss%3Ffamily%3DChakra%2BPetch;fontSize=20;fillColor=#ffcc99;strokeColor=#36393d;" parent="1" vertex="1">
                    <mxGeometry x="10" y="750" width="70" height="60" as="geometry"/>
                </mxCell>
                <mxCell id="78" value="&lt;font style=&quot;font-size: 19px&quot;&gt;Reload&lt;/font&gt;" style="rounded=0;whiteSpace=wrap;html=1;fontFamily=Chakra Petch;fontSource=https%3A%2F%2Ffonts.googleapis.com%2Fcss%3Ffamily%3DChakra%2BPetch;fontSize=20;fillColor=#f9f7ed;strokeColor=#36393d;" parent="1" vertex="1">
                    <mxGeometry x="10" y="680" width="70" height="60" as="geometry"/>
                </mxCell>
                <mxCell id="79" value="&lt;font style=&quot;line-height: 0.8 ; font-size: 25px&quot;&gt;☰&lt;/font&gt;" style="rounded=0;whiteSpace=wrap;html=1;fontFamily=Chakra Petch;fontSource=https%3A%2F%2Ffonts.googleapis.com%2Fcss%3Ffamily%3DChakra%2BPetch;fontSize=19;fillColor=#ffcc99;strokeColor=#36393d;align=center;" parent="1" vertex="1">
                    <mxGeometry x="1540" y="20" width="40" height="40" as="geometry"/>
                </mxCell>
                <mxCell id="80" value="" style="rounded=0;whiteSpace=wrap;html=1;fillColor=#bac8d3;strokeColor=#23445d;" parent="1" vertex="1">
                    <mxGeometry y="900" width="1600" height="80" as="geometry"/>
                </mxCell>
                <mxCell id="81" value="" style="rounded=0;whiteSpace=wrap;html=1;fillColor=#bac8d3;strokeColor=#23445d;" parent="1" vertex="1">
                    <mxGeometry y="1720" width="1600" height="80" as="geometry"/>
                </mxCell>
                <mxCell id="82" value="&lt;font face=&quot;Chakra Petch&quot; data-font-src=&quot;https://fonts.googleapis.com/css?family=Chakra+Petch&quot; style=&quot;font-size: 20px&quot;&gt;LIBRARY&lt;/font&gt;" style="rounded=0;whiteSpace=wrap;html=1;fillColor=#ffcc99;strokeColor=#36393d;" parent="1" vertex="1">
                    <mxGeometry x="670" y="910" width="130" height="60" as="geometry"/>
                </mxCell>
                <mxCell id="83" value="&lt;font face=&quot;Chakra Petch&quot; data-font-src=&quot;https://fonts.googleapis.com/css?family=Chakra+Petch&quot; style=&quot;font-size: 20px&quot;&gt;EXPLORE&lt;/font&gt;" style="rounded=0;whiteSpace=wrap;html=1;fillColor=#f9f7ed;strokeColor=#36393d;" parent="1" vertex="1">
                    <mxGeometry x="800" y="910" width="120" height="60" as="geometry"/>
                </mxCell>
                <mxCell id="84" value="&lt;font face=&quot;Chakra Petch&quot; data-font-src=&quot;https://fonts.googleapis.com/css?family=Chakra+Petch&quot; style=&quot;font-size: 20px&quot;&gt;▶&lt;/font&gt;" style="rounded=0;whiteSpace=wrap;html=1;fillColor=#ffcc99;strokeColor=#36393d;" parent="1" vertex="1">
                    <mxGeometry x="10" y="1730" width="60" height="60" as="geometry"/>
                </mxCell>
                <mxCell id="85" value="" style="icon;html=1;image=img/clipart/Gear_128x128.png;fontFamily=Chakra Petch;fontSource=https%3A%2F%2Ffonts.googleapis.com%2Fcss%3Ffamily%3DChakra%2BPetch;fontSize=20;rounded=0;" parent="1" vertex="1">
                    <mxGeometry x="90" y="1730" width="60" height="60" as="geometry"/>
                </mxCell>
                <mxCell id="86" value="Radio station (stream type &amp;amp; bitrate)&lt;br&gt;Artist – Song" style="text;html=1;strokeColor=none;fillColor=none;align=left;verticalAlign=middle;whiteSpace=wrap;rounded=0;fontFamily=Chakra Petch;fontSource=https%3A%2F%2Ffonts.googleapis.com%2Fcss%3Ffamily%3DChakra%2BPetch;fontSize=20;" parent="1" vertex="1">
                    <mxGeometry x="160" y="1730" width="420" height="60" as="geometry"/>
                </mxCell>
                <mxCell id="87" value="&lt;font size=&quot;1&quot;&gt;&lt;br&gt;VOLUME: 50%&lt;/font&gt;" style="rounded=0;whiteSpace=wrap;html=1;fontFamily=Chakra Petch;fontSource=https%3A%2F%2Ffonts.googleapis.com%2Fcss%3Ffamily%3DChakra%2BPetch;fontSize=20;fillColor=#ffcc99;strokeColor=#36393d;" parent="1" vertex="1">
                    <mxGeometry x="20" y="935" width="150" height="10" as="geometry"/>
                </mxCell>
                <mxCell id="88" value="" style="whiteSpace=wrap;html=1;aspect=fixed;rounded=0;fontFamily=Chakra Petch;fontSource=https%3A%2F%2Ffonts.googleapis.com%2Fcss%3Ffamily%3DChakra%2BPetch;fontSize=19;fillColor=#000000;" parent="1" vertex="1">
                    <mxGeometry x="90" y="935" width="10" height="10" as="geometry"/>
                </mxCell>
                <mxCell id="89" value="&lt;i&gt;Search...&lt;/i&gt;" style="rounded=0;whiteSpace=wrap;html=1;fontFamily=Chakra Petch;fontSource=https%3A%2F%2Ffonts.googleapis.com%2Fcss%3Ffamily%3DChakra%2BPetch;fontSize=19;fillColor=#f9f7ed;strokeColor=#36393d;align=left;" parent="1" vertex="1">
                    <mxGeometry x="1240" y="920" width="250" height="40" as="geometry"/>
                </mxCell>
                <mxCell id="90" value="" style="rounded=0;whiteSpace=wrap;html=1;fontFamily=Chakra Petch;fontSource=https%3A%2F%2Ffonts.googleapis.com%2Fcss%3Ffamily%3DChakra%2BPetch;fontSize=19;fillColor=#ffcc99;strokeColor=#36393d;align=left;" parent="1" vertex="1">
                    <mxGeometry x="1480" y="920" width="40" height="40" as="geometry"/>
                </mxCell>
                <mxCell id="91" value="" style="endArrow=none;html=1;fontFamily=Chakra Petch;fontSource=https%3A%2F%2Ffonts.googleapis.com%2Fcss%3Ffamily%3DChakra%2BPetch;fontSize=18;" parent="1" edge="1">
                    <mxGeometry width="50" height="50" relative="1" as="geometry">
                        <mxPoint x="20" y="945" as="sourcePoint"/>
                        <mxPoint x="30" y="935" as="targetPoint"/>
                    </mxGeometry>
                </mxCell>
                <mxCell id="92" value="" style="endArrow=none;html=1;fontFamily=Chakra Petch;fontSource=https%3A%2F%2Ffonts.googleapis.com%2Fcss%3Ffamily%3DChakra%2BPetch;fontSize=18;" parent="1" edge="1">
                    <mxGeometry width="50" height="50" relative="1" as="geometry">
                        <mxPoint x="30" y="945" as="sourcePoint"/>
                        <mxPoint x="40" y="935" as="targetPoint"/>
                    </mxGeometry>
                </mxCell>
                <mxCell id="93" value="" style="endArrow=none;html=1;fontFamily=Chakra Petch;fontSource=https%3A%2F%2Ffonts.googleapis.com%2Fcss%3Ffamily%3DChakra%2BPetch;fontSize=18;" parent="1" edge="1">
                    <mxGeometry width="50" height="50" relative="1" as="geometry">
                        <mxPoint x="40" y="945" as="sourcePoint"/>
                        <mxPoint x="50" y="935" as="targetPoint"/>
                    </mxGeometry>
                </mxCell>
                <mxCell id="94" value="" style="endArrow=none;html=1;fontFamily=Chakra Petch;fontSource=https%3A%2F%2Ffonts.googleapis.com%2Fcss%3Ffamily%3DChakra%2BPetch;fontSize=18;" parent="1" edge="1">
                    <mxGeometry width="50" height="50" relative="1" as="geometry">
                        <mxPoint x="50" y="945" as="sourcePoint"/>
                        <mxPoint x="60" y="935" as="targetPoint"/>
                    </mxGeometry>
                </mxCell>
                <mxCell id="95" value="" style="endArrow=none;html=1;fontFamily=Chakra Petch;fontSource=https%3A%2F%2Ffonts.googleapis.com%2Fcss%3Ffamily%3DChakra%2BPetch;fontSize=18;" parent="1" edge="1">
                    <mxGeometry width="50" height="50" relative="1" as="geometry">
                        <mxPoint x="60" y="945" as="sourcePoint"/>
                        <mxPoint x="70" y="935" as="targetPoint"/>
                    </mxGeometry>
                </mxCell>
                <mxCell id="96" value="" style="endArrow=none;html=1;fontFamily=Chakra Petch;fontSource=https%3A%2F%2Ffonts.googleapis.com%2Fcss%3Ffamily%3DChakra%2BPetch;fontSize=18;" parent="1" edge="1">
                    <mxGeometry width="50" height="50" relative="1" as="geometry">
                        <mxPoint x="70" y="945" as="sourcePoint"/>
                        <mxPoint x="80" y="935" as="targetPoint"/>
                    </mxGeometry>
                </mxCell>
                <mxCell id="97" value="" style="endArrow=none;html=1;fontFamily=Chakra Petch;fontSource=https%3A%2F%2Ffonts.googleapis.com%2Fcss%3Ffamily%3DChakra%2BPetch;fontSize=18;" parent="1" edge="1">
                    <mxGeometry width="50" height="50" relative="1" as="geometry">
                        <mxPoint x="80" y="945" as="sourcePoint"/>
                        <mxPoint x="90" y="935" as="targetPoint"/>
                    </mxGeometry>
                </mxCell>
                <mxCell id="98" value="" style="endArrow=none;html=1;fontFamily=Chakra Petch;fontSource=https%3A%2F%2Ffonts.googleapis.com%2Fcss%3Ffamily%3DChakra%2BPetch;fontSize=18;" parent="1" edge="1">
                    <mxGeometry width="50" height="50" relative="1" as="geometry">
                        <mxPoint x="90" y="945" as="sourcePoint"/>
                        <mxPoint x="100" y="935" as="targetPoint"/>
                    </mxGeometry>
                </mxCell>
                <mxCell id="99" value="    Favorites" style="swimlane;rounded=0;fontFamily=Chakra Petch;fontSource=https%3A%2F%2Ffonts.googleapis.com%2Fcss%3Ffamily%3DChakra%2BPetch;fontSize=22;fillColor=#f9f7ed;swimlaneFillColor=#BDBDBD;strokeColor=#36393d;startSize=50;align=left;" parent="1" vertex="1">
                    <mxGeometry x="90" y="980" width="1510" height="740" as="geometry"/>
                </mxCell>
                <mxCell id="100" value="" style="rounded=0;whiteSpace=wrap;html=1;fontFamily=Chakra Petch;fontSource=https%3A%2F%2Ffonts.googleapis.com%2Fcss%3Ffamily%3DChakra%2BPetch;fontSize=22;fillColor=#E6E6E6;align=left;" parent="99" vertex="1">
                    <mxGeometry x="10" y="60" width="210" height="210" as="geometry"/>
                </mxCell>
                <mxCell id="101" value="" style="icon;html=1;image=img/clipart/Gear_128x128.png;fontFamily=Chakra Petch;fontSource=https%3A%2F%2Ffonts.googleapis.com%2Fcss%3Ffamily%3DChakra%2BPetch;fontSize=20;rounded=0;" parent="99" vertex="1">
                    <mxGeometry x="30" y="70" width="170" height="170" as="geometry"/>
                </mxCell>
                <mxCell id="112" value="&lt;font style=&quot;font-size: 22px&quot;&gt;...&lt;/font&gt;" style="text;html=1;strokeColor=none;fillColor=none;align=center;verticalAlign=middle;whiteSpace=wrap;rounded=0;fontFamily=Chakra Petch;fontSource=https%3A%2F%2Ffonts.googleapis.com%2Fcss%3Ffamily%3DChakra%2BPetch;fontSize=8;direction=east;" parent="99" vertex="1">
                    <mxGeometry x="460" y="150" width="60" height="30" as="geometry"/>
                </mxCell>
                <mxCell id="134" value="Station name" style="text;html=1;strokeColor=none;fillColor=none;align=center;verticalAlign=middle;whiteSpace=wrap;rounded=0;fontFamily=Chakra Petch;fontSource=https%3A%2F%2Ffonts.googleapis.com%2Fcss%3Ffamily%3DChakra%2BPetch;fontSize=15;" parent="99" vertex="1">
                    <mxGeometry x="67.5" y="240" width="95" height="30" as="geometry"/>
                </mxCell>
                <mxCell id="135" value="" style="rounded=0;whiteSpace=wrap;html=1;fontFamily=Chakra Petch;fontSource=https%3A%2F%2Ffonts.googleapis.com%2Fcss%3Ffamily%3DChakra%2BPetch;fontSize=22;fillColor=#ffcc99;align=left;strokeColor=#36393d;" parent="99" vertex="1">
                    <mxGeometry x="230" y="60" width="210" height="210" as="geometry"/>
                </mxCell>
                <mxCell id="136" value="" style="icon;html=1;image=img/clipart/Gear_128x128.png;fontFamily=Chakra Petch;fontSource=https%3A%2F%2Ffonts.googleapis.com%2Fcss%3Ffamily%3DChakra%2BPetch;fontSize=20;rounded=0;" parent="99" vertex="1">
                    <mxGeometry x="250" y="70" width="170" height="170" as="geometry"/>
                </mxCell>
                <mxCell id="137" value="Station name" style="text;html=1;strokeColor=none;fillColor=none;align=center;verticalAlign=middle;whiteSpace=wrap;rounded=0;fontFamily=Chakra Petch;fontSource=https%3A%2F%2Ffonts.googleapis.com%2Fcss%3Ffamily%3DChakra%2BPetch;fontSize=15;" parent="99" vertex="1">
                    <mxGeometry x="287.5" y="240" width="95" height="30" as="geometry"/>
                </mxCell>
                <mxCell id="139" value="    Collections" style="swimlane;rounded=0;fontFamily=Chakra Petch;fontSource=https%3A%2F%2Ffonts.googleapis.com%2Fcss%3Ffamily%3DChakra%2BPetch;fontSize=22;fillColor=#f9f7ed;swimlaneFillColor=#BDBDBD;strokeColor=#36393d;startSize=50;align=left;" parent="99" vertex="1">
                    <mxGeometry y="380" width="1510" height="360" as="geometry"/>
                </mxCell>
                <mxCell id="140" value="" style="rounded=0;whiteSpace=wrap;html=1;fontFamily=Chakra Petch;fontSource=https%3A%2F%2Ffonts.googleapis.com%2Fcss%3Ffamily%3DChakra%2BPetch;fontSize=22;fillColor=#E6E6E6;align=left;" parent="139" vertex="1">
                    <mxGeometry x="10" y="60" width="210" height="210" as="geometry"/>
                </mxCell>
                <mxCell id="141" value="" style="icon;html=1;image=img/clipart/Gear_128x128.png;fontFamily=Chakra Petch;fontSource=https%3A%2F%2Ffonts.googleapis.com%2Fcss%3Ffamily%3DChakra%2BPetch;fontSize=20;rounded=0;" parent="139" vertex="1">
                    <mxGeometry x="30" y="70" width="80" height="80" as="geometry"/>
                </mxCell>
                <mxCell id="142" value="Some collection" style="text;html=1;strokeColor=none;fillColor=none;align=center;verticalAlign=middle;whiteSpace=wrap;rounded=0;fontFamily=Chakra Petch;fontSource=https%3A%2F%2Ffonts.googleapis.com%2Fcss%3Ffamily%3DChakra%2BPetch;fontSize=15;" parent="139" vertex="1">
                    <mxGeometry x="58.75" y="240" width="112.5" height="30" as="geometry"/>
                </mxCell>
                <mxCell id="143" value="" style="icon;html=1;image=img/clipart/Gear_128x128.png;fontFamily=Chakra Petch;fontSource=https%3A%2F%2Ffonts.googleapis.com%2Fcss%3Ffamily%3DChakra%2BPetch;fontSize=20;rounded=0;" parent="139" vertex="1">
                    <mxGeometry x="120" y="70" width="80" height="80" as="geometry"/>
                </mxCell>
                <mxCell id="144" value="" style="icon;html=1;image=img/clipart/Gear_128x128.png;fontFamily=Chakra Petch;fontSource=https%3A%2F%2Ffonts.googleapis.com%2Fcss%3Ffamily%3DChakra%2BPetch;fontSize=20;rounded=0;" parent="139" vertex="1">
                    <mxGeometry x="30" y="160" width="80" height="80" as="geometry"/>
                </mxCell>
                <mxCell id="145" value="" style="icon;html=1;image=img/clipart/Gear_128x128.png;fontFamily=Chakra Petch;fontSource=https%3A%2F%2Ffonts.googleapis.com%2Fcss%3Ffamily%3DChakra%2BPetch;fontSize=20;rounded=0;" parent="139" vertex="1">
                    <mxGeometry x="120" y="160" width="80" height="80" as="geometry"/>
                </mxCell>
                <mxCell id="146" value="&lt;font style=&quot;font-size: 22px&quot;&gt;...&lt;/font&gt;" style="text;html=1;strokeColor=none;fillColor=none;align=center;verticalAlign=middle;whiteSpace=wrap;rounded=0;fontFamily=Chakra Petch;fontSource=https%3A%2F%2Ffonts.googleapis.com%2Fcss%3Ffamily%3DChakra%2BPetch;fontSize=8;direction=east;" parent="139" vertex="1">
                    <mxGeometry x="240" y="150" width="60" height="30" as="geometry"/>
                </mxCell>
                <mxCell id="126" value="&lt;font style=&quot;font-size: 27px&quot;&gt;♥ &lt;/font&gt;&lt;font style=&quot;font-size: 20px&quot;&gt;123&lt;/font&gt;&lt;font style=&quot;font-size: 27px&quot;&gt;&amp;nbsp;☆&amp;nbsp;⌂&lt;/font&gt;" style="text;html=1;strokeColor=none;fillColor=none;align=center;verticalAlign=middle;whiteSpace=wrap;rounded=0;fontFamily=Chakra Petch;fontSource=https%3A%2F%2Ffonts.googleapis.com%2Fcss%3Ffamily%3DChakra%2BPetch;fontSize=9;" parent="1" vertex="1">
                    <mxGeometry x="1420" y="1745" width="180" height="30" as="geometry"/>
                </mxCell>
                <mxCell id="127" value="" style="rounded=0;whiteSpace=wrap;html=1;fontFamily=Chakra Petch;fontSource=https%3A%2F%2Ffonts.googleapis.com%2Fcss%3Ffamily%3DChakra%2BPetch;fontSize=20;fillColor=#E6E6E6;" parent="1" vertex="1">
                    <mxGeometry y="980" width="90" height="740" as="geometry"/>
                </mxCell>
                <mxCell id="128" value="&lt;font style=&quot;font-size: 16px&quot;&gt;Genres&lt;/font&gt;" style="rounded=0;whiteSpace=wrap;html=1;fontFamily=Chakra Petch;fontSource=https%3A%2F%2Ffonts.googleapis.com%2Fcss%3Ffamily%3DChakra%2BPetch;fontSize=20;fillColor=#f9f7ed;strokeColor=#36393d;" parent="1" vertex="1">
                    <mxGeometry x="10" y="990" width="70" height="60" as="geometry"/>
                </mxCell>
                <mxCell id="129" value="&lt;font style=&quot;font-size: 13px&quot;&gt;Languages&lt;/font&gt;" style="rounded=0;whiteSpace=wrap;html=1;fontFamily=Chakra Petch;fontSource=https%3A%2F%2Ffonts.googleapis.com%2Fcss%3Ffamily%3DChakra%2BPetch;fontSize=20;fillColor=#f9f7ed;strokeColor=#36393d;" parent="1" vertex="1">
                    <mxGeometry x="10" y="1060" width="70" height="60" as="geometry"/>
                </mxCell>
                <mxCell id="130" value="&lt;font style=&quot;font-size: 14px&quot;&gt;Countries&lt;/font&gt;" style="rounded=0;whiteSpace=wrap;html=1;fontFamily=Chakra Petch;fontSource=https%3A%2F%2Ffonts.googleapis.com%2Fcss%3Ffamily%3DChakra%2BPetch;fontSize=20;fillColor=#f9f7ed;strokeColor=#36393d;" parent="1" vertex="1">
                    <mxGeometry x="10" y="1130" width="70" height="60" as="geometry"/>
                </mxCell>
                <mxCell id="131" value="&lt;font style=&quot;font-size: 19px&quot;&gt;Home&lt;/font&gt;" style="rounded=0;whiteSpace=wrap;html=1;fontFamily=Chakra Petch;fontSource=https%3A%2F%2Ffonts.googleapis.com%2Fcss%3Ffamily%3DChakra%2BPetch;fontSize=20;fillColor=#ffcc99;strokeColor=#36393d;" parent="1" vertex="1">
                    <mxGeometry x="10" y="1650" width="70" height="60" as="geometry"/>
                </mxCell>
                <mxCell id="132" value="&lt;font style=&quot;font-size: 19px&quot;&gt;Reload&lt;/font&gt;" style="rounded=0;whiteSpace=wrap;html=1;fontFamily=Chakra Petch;fontSource=https%3A%2F%2Ffonts.googleapis.com%2Fcss%3Ffamily%3DChakra%2BPetch;fontSize=20;fillColor=#f9f7ed;strokeColor=#36393d;" parent="1" vertex="1">
                    <mxGeometry x="10" y="1580" width="70" height="60" as="geometry"/>
                </mxCell>
                <mxCell id="133" value="&lt;font style=&quot;line-height: 0.8 ; font-size: 25px&quot;&gt;☰&lt;/font&gt;" style="rounded=0;whiteSpace=wrap;html=1;fontFamily=Chakra Petch;fontSource=https%3A%2F%2Ffonts.googleapis.com%2Fcss%3Ffamily%3DChakra%2BPetch;fontSize=19;fillColor=#ffcc99;strokeColor=#36393d;align=center;" parent="1" vertex="1">
                    <mxGeometry x="1540" y="920" width="40" height="40" as="geometry"/>
                </mxCell>
            </root>
        </mxGraphModel>
    </diagram>
</mxfile>
